<mxfile host="app.diagrams.net" modified="2020-10-13T16:30:27.582Z" agent="5.0 (Macintosh; Intel Mac OS X 10_15_7) AppleWebKit/537.36 (KHTML, like Gecko) Chrome/86.0.4240.75 Safari/537.36" etag="izH68JKR8Mp0mr6qhEfX" version="13.7.9" type="github">
  <diagram id="R2lEEEUBdFMjLlhIrx00" name="Page-1">
    <mxGraphModel dx="1796" dy="613" grid="1" gridSize="10" guides="1" tooltips="1" connect="1" arrows="1" fold="1" page="1" pageScale="1" pageWidth="850" pageHeight="1100" math="0" shadow="0" extFonts="Permanent Marker^https://fonts.googleapis.com/css?family=Permanent+Marker">
      <root>
        <mxCell id="0" />
        <mxCell id="1" parent="0" />
        <mxCell id="o5xKfzalzevmkCCJvO4_-7" value="" style="edgeStyle=orthogonalEdgeStyle;rounded=0;orthogonalLoop=1;jettySize=auto;html=1;" edge="1" parent="1" source="o5xKfzalzevmkCCJvO4_-5" target="o5xKfzalzevmkCCJvO4_-6">
          <mxGeometry relative="1" as="geometry" />
        </mxCell>
        <mxCell id="o5xKfzalzevmkCCJvO4_-15" style="edgeStyle=orthogonalEdgeStyle;rounded=1;orthogonalLoop=1;jettySize=auto;html=1;entryX=0.5;entryY=1;entryDx=0;entryDy=0;" edge="1" parent="1" source="o5xKfzalzevmkCCJvO4_-5" target="o5xKfzalzevmkCCJvO4_-9">
          <mxGeometry relative="1" as="geometry">
            <Array as="points">
              <mxPoint x="180" y="170" />
              <mxPoint x="128" y="170" />
            </Array>
          </mxGeometry>
        </mxCell>
        <mxCell id="o5xKfzalzevmkCCJvO4_-16" style="edgeStyle=orthogonalEdgeStyle;rounded=1;orthogonalLoop=1;jettySize=auto;html=1;entryX=0.5;entryY=1;entryDx=0;entryDy=0;" edge="1" parent="1" source="o5xKfzalzevmkCCJvO4_-5" target="o5xKfzalzevmkCCJvO4_-8">
          <mxGeometry relative="1" as="geometry">
            <Array as="points">
              <mxPoint x="180" y="170" />
              <mxPoint x="238" y="170" />
            </Array>
          </mxGeometry>
        </mxCell>
        <mxCell id="o5xKfzalzevmkCCJvO4_-18" style="edgeStyle=orthogonalEdgeStyle;rounded=1;orthogonalLoop=1;jettySize=auto;html=1;entryX=0.5;entryY=1;entryDx=0;entryDy=0;" edge="1" parent="1" source="o5xKfzalzevmkCCJvO4_-5" target="o5xKfzalzevmkCCJvO4_-10">
          <mxGeometry relative="1" as="geometry">
            <Array as="points">
              <mxPoint x="180" y="220" />
              <mxPoint x="88" y="220" />
            </Array>
          </mxGeometry>
        </mxCell>
        <mxCell id="o5xKfzalzevmkCCJvO4_-19" style="edgeStyle=orthogonalEdgeStyle;rounded=1;orthogonalLoop=1;jettySize=auto;html=1;entryX=0.5;entryY=1;entryDx=0;entryDy=0;" edge="1" parent="1" source="o5xKfzalzevmkCCJvO4_-5" target="o5xKfzalzevmkCCJvO4_-11">
          <mxGeometry relative="1" as="geometry">
            <Array as="points">
              <mxPoint x="180" y="220" />
              <mxPoint x="278" y="220" />
            </Array>
          </mxGeometry>
        </mxCell>
        <mxCell id="o5xKfzalzevmkCCJvO4_-20" style="edgeStyle=orthogonalEdgeStyle;rounded=1;orthogonalLoop=1;jettySize=auto;html=1;entryX=1;entryY=0.5;entryDx=0;entryDy=0;" edge="1" parent="1" source="o5xKfzalzevmkCCJvO4_-5" target="o5xKfzalzevmkCCJvO4_-14">
          <mxGeometry relative="1" as="geometry" />
        </mxCell>
        <mxCell id="o5xKfzalzevmkCCJvO4_-21" style="edgeStyle=orthogonalEdgeStyle;rounded=1;orthogonalLoop=1;jettySize=auto;html=1;entryX=1;entryY=0.5;entryDx=0;entryDy=0;" edge="1" parent="1" source="o5xKfzalzevmkCCJvO4_-5" target="o5xKfzalzevmkCCJvO4_-12">
          <mxGeometry relative="1" as="geometry">
            <Array as="points">
              <mxPoint x="70" y="270" />
              <mxPoint x="70" y="220" />
            </Array>
          </mxGeometry>
        </mxCell>
        <mxCell id="o5xKfzalzevmkCCJvO4_-22" style="edgeStyle=orthogonalEdgeStyle;rounded=1;orthogonalLoop=1;jettySize=auto;html=1;entryX=1;entryY=0.5;entryDx=0;entryDy=0;" edge="1" parent="1" source="o5xKfzalzevmkCCJvO4_-5" target="o5xKfzalzevmkCCJvO4_-13">
          <mxGeometry relative="1" as="geometry">
            <Array as="points">
              <mxPoint x="70" y="270" />
              <mxPoint x="70" y="320" />
            </Array>
          </mxGeometry>
        </mxCell>
        <mxCell id="o5xKfzalzevmkCCJvO4_-26" value="" style="edgeStyle=orthogonalEdgeStyle;rounded=1;orthogonalLoop=1;jettySize=auto;html=1;entryX=0.5;entryY=0;entryDx=0;entryDy=0;" edge="1" parent="1" source="o5xKfzalzevmkCCJvO4_-5" target="o5xKfzalzevmkCCJvO4_-27">
          <mxGeometry relative="1" as="geometry">
            <mxPoint x="330" y="270" as="targetPoint" />
          </mxGeometry>
        </mxCell>
        <mxCell id="o5xKfzalzevmkCCJvO4_-5" value="Parent" style="rounded=1;arcSize=10;whiteSpace=wrap;html=1;align=center;strokeColor=#56517e;shadow=0;fillColor=#DDD7E2;" vertex="1" parent="1">
          <mxGeometry x="130" y="250" width="100" height="40" as="geometry" />
        </mxCell>
        <mxCell id="o5xKfzalzevmkCCJvO4_-6" value="&lt;u&gt;ParentID&lt;/u&gt;" style="ellipse;whiteSpace=wrap;html=1;rounded=1;shadow=0;strokeColor=#ae4132;fillColor=#fad9d5;arcSize=10;" vertex="1" parent="1">
          <mxGeometry x="142.5" y="60" width="75" height="40" as="geometry" />
        </mxCell>
        <mxCell id="o5xKfzalzevmkCCJvO4_-8" value="PName" style="ellipse;whiteSpace=wrap;html=1;rounded=1;shadow=0;strokeColor=#ae4132;fillColor=#fad9d5;arcSize=10;" vertex="1" parent="1">
          <mxGeometry x="200" y="100" width="75" height="40" as="geometry" />
        </mxCell>
        <mxCell id="o5xKfzalzevmkCCJvO4_-9" value="PAddress" style="ellipse;whiteSpace=wrap;html=1;rounded=1;shadow=0;strokeColor=#ae4132;fillColor=#fad9d5;arcSize=10;" vertex="1" parent="1">
          <mxGeometry x="90" y="100" width="75" height="40" as="geometry" />
        </mxCell>
        <mxCell id="o5xKfzalzevmkCCJvO4_-10" value="PEmail" style="ellipse;whiteSpace=wrap;html=1;rounded=1;shadow=0;strokeColor=#ae4132;fillColor=#fad9d5;arcSize=10;" vertex="1" parent="1">
          <mxGeometry x="50" y="160" width="75" height="40" as="geometry" />
        </mxCell>
        <mxCell id="o5xKfzalzevmkCCJvO4_-11" value="PPhone" style="ellipse;whiteSpace=wrap;html=1;rounded=1;shadow=0;strokeColor=#ae4132;fillColor=#fad9d5;arcSize=10;" vertex="1" parent="1">
          <mxGeometry x="240" y="160" width="75" height="40" as="geometry" />
        </mxCell>
        <mxCell id="o5xKfzalzevmkCCJvO4_-12" value="PPasswrd" style="ellipse;whiteSpace=wrap;html=1;rounded=1;shadow=0;strokeColor=#ae4132;fillColor=#fad9d5;arcSize=10;" vertex="1" parent="1">
          <mxGeometry x="-50" y="200" width="75" height="40" as="geometry" />
        </mxCell>
        <mxCell id="o5xKfzalzevmkCCJvO4_-13" value="PStatus" style="ellipse;whiteSpace=wrap;html=1;rounded=1;shadow=0;strokeColor=#ae4132;fillColor=#fad9d5;arcSize=10;" vertex="1" parent="1">
          <mxGeometry x="-50" y="300" width="75" height="40" as="geometry" />
        </mxCell>
        <mxCell id="o5xKfzalzevmkCCJvO4_-14" value="PNoofchild" style="ellipse;whiteSpace=wrap;html=1;rounded=1;shadow=0;strokeColor=#ae4132;fillColor=#fad9d5;arcSize=10;" vertex="1" parent="1">
          <mxGeometry x="-75" y="250" width="75" height="40" as="geometry" />
        </mxCell>
        <mxCell id="o5xKfzalzevmkCCJvO4_-31" value="" style="edgeStyle=orthogonalEdgeStyle;rounded=1;orthogonalLoop=1;jettySize=auto;html=1;entryX=1;entryY=0.5;entryDx=0;entryDy=0;" edge="1" parent="1" source="o5xKfzalzevmkCCJvO4_-27" target="o5xKfzalzevmkCCJvO4_-32">
          <mxGeometry relative="1" as="geometry">
            <mxPoint x="360" y="160" as="targetPoint" />
          </mxGeometry>
        </mxCell>
        <mxCell id="o5xKfzalzevmkCCJvO4_-35" style="edgeStyle=orthogonalEdgeStyle;rounded=1;orthogonalLoop=1;jettySize=auto;html=1;entryX=0.5;entryY=0;entryDx=0;entryDy=0;" edge="1" parent="1" source="o5xKfzalzevmkCCJvO4_-27" target="o5xKfzalzevmkCCJvO4_-33">
          <mxGeometry relative="1" as="geometry" />
        </mxCell>
        <mxCell id="o5xKfzalzevmkCCJvO4_-36" style="edgeStyle=orthogonalEdgeStyle;rounded=1;orthogonalLoop=1;jettySize=auto;html=1;entryX=0;entryY=0.5;entryDx=0;entryDy=0;" edge="1" parent="1" source="o5xKfzalzevmkCCJvO4_-27" target="o5xKfzalzevmkCCJvO4_-34">
          <mxGeometry relative="1" as="geometry" />
        </mxCell>
        <mxCell id="o5xKfzalzevmkCCJvO4_-27" value="Has" style="shape=rhombus;perimeter=rhombusPerimeter;whiteSpace=wrap;html=1;align=center;shadow=0;fillColor=#d5e8d4;strokeColor=#82b366;" vertex="1" parent="1">
          <mxGeometry x="140" y="410" width="80" height="60" as="geometry" />
        </mxCell>
        <mxCell id="o5xKfzalzevmkCCJvO4_-69" style="edgeStyle=orthogonalEdgeStyle;rounded=1;orthogonalLoop=1;jettySize=auto;html=1;entryX=1;entryY=0.5;entryDx=0;entryDy=0;exitX=0.5;exitY=0;exitDx=0;exitDy=0;" edge="1" parent="1" source="o5xKfzalzevmkCCJvO4_-32" target="o5xKfzalzevmkCCJvO4_-37">
          <mxGeometry relative="1" as="geometry" />
        </mxCell>
        <mxCell id="o5xKfzalzevmkCCJvO4_-70" style="edgeStyle=orthogonalEdgeStyle;rounded=1;orthogonalLoop=1;jettySize=auto;html=1;entryX=1;entryY=0.5;entryDx=0;entryDy=0;exitX=0.5;exitY=1;exitDx=0;exitDy=0;" edge="1" parent="1" source="o5xKfzalzevmkCCJvO4_-32" target="o5xKfzalzevmkCCJvO4_-41">
          <mxGeometry relative="1" as="geometry" />
        </mxCell>
        <mxCell id="o5xKfzalzevmkCCJvO4_-71" style="edgeStyle=orthogonalEdgeStyle;rounded=1;orthogonalLoop=1;jettySize=auto;html=1;entryX=1;entryY=0.5;entryDx=0;entryDy=0;" edge="1" parent="1" source="o5xKfzalzevmkCCJvO4_-32" target="o5xKfzalzevmkCCJvO4_-38">
          <mxGeometry relative="1" as="geometry" />
        </mxCell>
        <mxCell id="o5xKfzalzevmkCCJvO4_-72" style="edgeStyle=orthogonalEdgeStyle;rounded=1;orthogonalLoop=1;jettySize=auto;html=1;entryX=1;entryY=0.5;entryDx=0;entryDy=0;" edge="1" parent="1" source="o5xKfzalzevmkCCJvO4_-32" target="o5xKfzalzevmkCCJvO4_-40">
          <mxGeometry relative="1" as="geometry" />
        </mxCell>
        <mxCell id="o5xKfzalzevmkCCJvO4_-32" value="Child" style="rounded=1;arcSize=10;whiteSpace=wrap;html=1;align=center;strokeColor=#56517e;shadow=0;fillColor=#DDD7E2;" vertex="1" parent="1">
          <mxGeometry x="-90" y="420" width="100" height="40" as="geometry" />
        </mxCell>
        <mxCell id="o5xKfzalzevmkCCJvO4_-51" style="edgeStyle=orthogonalEdgeStyle;rounded=1;orthogonalLoop=1;jettySize=auto;html=1;entryX=1;entryY=0.5;entryDx=0;entryDy=0;" edge="1" parent="1" source="o5xKfzalzevmkCCJvO4_-33" target="o5xKfzalzevmkCCJvO4_-50">
          <mxGeometry relative="1" as="geometry" />
        </mxCell>
        <mxCell id="o5xKfzalzevmkCCJvO4_-33" value="Connection" style="rounded=1;arcSize=10;whiteSpace=wrap;html=1;align=center;strokeColor=#56517e;shadow=0;fillColor=#DDD7E2;" vertex="1" parent="1">
          <mxGeometry x="130" y="540" width="100" height="40" as="geometry" />
        </mxCell>
        <mxCell id="o5xKfzalzevmkCCJvO4_-60" style="edgeStyle=orthogonalEdgeStyle;rounded=1;orthogonalLoop=1;jettySize=auto;html=1;" edge="1" parent="1" source="o5xKfzalzevmkCCJvO4_-34" target="o5xKfzalzevmkCCJvO4_-52">
          <mxGeometry relative="1" as="geometry" />
        </mxCell>
        <mxCell id="o5xKfzalzevmkCCJvO4_-63" style="edgeStyle=orthogonalEdgeStyle;rounded=1;orthogonalLoop=1;jettySize=auto;html=1;entryX=0;entryY=0.5;entryDx=0;entryDy=0;" edge="1" parent="1" source="o5xKfzalzevmkCCJvO4_-34" target="o5xKfzalzevmkCCJvO4_-56">
          <mxGeometry relative="1" as="geometry">
            <Array as="points">
              <mxPoint x="420" y="440" />
              <mxPoint x="420" y="400" />
            </Array>
          </mxGeometry>
        </mxCell>
        <mxCell id="o5xKfzalzevmkCCJvO4_-64" style="edgeStyle=orthogonalEdgeStyle;rounded=1;orthogonalLoop=1;jettySize=auto;html=1;entryX=0;entryY=0.5;entryDx=0;entryDy=0;" edge="1" parent="1" source="o5xKfzalzevmkCCJvO4_-34" target="o5xKfzalzevmkCCJvO4_-53">
          <mxGeometry relative="1" as="geometry" />
        </mxCell>
        <mxCell id="o5xKfzalzevmkCCJvO4_-65" style="edgeStyle=orthogonalEdgeStyle;rounded=1;orthogonalLoop=1;jettySize=auto;html=1;entryX=0;entryY=0.5;entryDx=0;entryDy=0;" edge="1" parent="1" source="o5xKfzalzevmkCCJvO4_-34" target="o5xKfzalzevmkCCJvO4_-55">
          <mxGeometry relative="1" as="geometry">
            <Array as="points">
              <mxPoint x="420" y="440" />
              <mxPoint x="420" y="480" />
            </Array>
          </mxGeometry>
        </mxCell>
        <mxCell id="o5xKfzalzevmkCCJvO4_-34" value="Bookings" style="rounded=1;arcSize=10;whiteSpace=wrap;html=1;align=center;strokeColor=#56517e;shadow=0;fillColor=#DDD7E2;" vertex="1" parent="1">
          <mxGeometry x="310" y="420" width="100" height="40" as="geometry" />
        </mxCell>
        <mxCell id="o5xKfzalzevmkCCJvO4_-37" value="&lt;u&gt;ChildID&lt;/u&gt;" style="ellipse;whiteSpace=wrap;html=1;rounded=1;shadow=0;strokeColor=#ae4132;fillColor=#fad9d5;arcSize=10;" vertex="1" parent="1">
          <mxGeometry x="-180" y="350" width="75" height="40" as="geometry" />
        </mxCell>
        <mxCell id="o5xKfzalzevmkCCJvO4_-38" value="CName" style="ellipse;whiteSpace=wrap;html=1;rounded=1;shadow=0;strokeColor=#ae4132;fillColor=#fad9d5;arcSize=10;" vertex="1" parent="1">
          <mxGeometry x="-270" y="380" width="75" height="40" as="geometry" />
        </mxCell>
        <mxCell id="o5xKfzalzevmkCCJvO4_-75" style="edgeStyle=orthogonalEdgeStyle;rounded=1;orthogonalLoop=1;jettySize=auto;html=1;entryX=0.5;entryY=1;entryDx=0;entryDy=0;" edge="1" parent="1" source="o5xKfzalzevmkCCJvO4_-40" target="o5xKfzalzevmkCCJvO4_-42">
          <mxGeometry relative="1" as="geometry" />
        </mxCell>
        <mxCell id="o5xKfzalzevmkCCJvO4_-40" value="CDOB" style="ellipse;whiteSpace=wrap;html=1;rounded=1;shadow=0;strokeColor=#ae4132;fillColor=#fad9d5;arcSize=10;" vertex="1" parent="1">
          <mxGeometry x="-270" y="460" width="75" height="40" as="geometry" />
        </mxCell>
        <mxCell id="o5xKfzalzevmkCCJvO4_-41" value="CGender" style="ellipse;whiteSpace=wrap;html=1;rounded=1;shadow=0;strokeColor=#ae4132;fillColor=#fad9d5;arcSize=10;" vertex="1" parent="1">
          <mxGeometry x="-180" y="490" width="75" height="40" as="geometry" />
        </mxCell>
        <mxCell id="o5xKfzalzevmkCCJvO4_-42" value="CAge" style="ellipse;whiteSpace=wrap;html=1;align=center;dashed=1;shadow=0;strokeColor=#36393d;fillColor=#FFE5E3;" vertex="1" parent="1">
          <mxGeometry x="-370" y="420" width="70" height="40" as="geometry" />
        </mxCell>
        <mxCell id="o5xKfzalzevmkCCJvO4_-50" value="Date" style="ellipse;whiteSpace=wrap;html=1;rounded=1;shadow=0;strokeColor=#ae4132;fillColor=#fad9d5;arcSize=10;" vertex="1" parent="1">
          <mxGeometry y="540" width="75" height="40" as="geometry" />
        </mxCell>
        <mxCell id="o5xKfzalzevmkCCJvO4_-52" value="&lt;u&gt;BookingID&lt;/u&gt;" style="ellipse;whiteSpace=wrap;html=1;rounded=1;shadow=0;strokeColor=#ae4132;fillColor=#fad9d5;arcSize=10;" vertex="1" parent="1">
          <mxGeometry x="322.5" y="360" width="75" height="30" as="geometry" />
        </mxCell>
        <mxCell id="o5xKfzalzevmkCCJvO4_-53" value="BDuration" style="ellipse;whiteSpace=wrap;html=1;rounded=1;shadow=0;strokeColor=#ae4132;fillColor=#fad9d5;arcSize=10;" vertex="1" parent="1">
          <mxGeometry x="515" y="420" width="75" height="40" as="geometry" />
        </mxCell>
        <mxCell id="o5xKfzalzevmkCCJvO4_-55" value="BookingPrice" style="ellipse;whiteSpace=wrap;html=1;rounded=1;shadow=0;strokeColor=#ae4132;fillColor=#fad9d5;arcSize=10;" vertex="1" parent="1">
          <mxGeometry x="440" y="460" width="75" height="40" as="geometry" />
        </mxCell>
        <mxCell id="o5xKfzalzevmkCCJvO4_-56" value="BookingDate" style="ellipse;whiteSpace=wrap;html=1;rounded=1;shadow=0;strokeColor=#ae4132;fillColor=#fad9d5;arcSize=10;" vertex="1" parent="1">
          <mxGeometry x="440" y="380" width="75" height="40" as="geometry" />
        </mxCell>
        <mxCell id="o5xKfzalzevmkCCJvO4_-66" value="Babysitter" style="rounded=1;arcSize=10;whiteSpace=wrap;html=1;align=center;strokeColor=#56517e;shadow=0;fillColor=#DDD7E2;" vertex="1" parent="1">
          <mxGeometry x="557.5" y="530" width="100" height="40" as="geometry" />
        </mxCell>
      </root>
    </mxGraphModel>
  </diagram>
</mxfile>
